<?xml version="1.0" encoding="UTF-8"?>
<svg xmlns="http://www.w3.org/2000/svg" viewBox="0 0 64 64">
  <defs>
    <linearGradient id="gold" x1="0" y1="0" x2="0" y2="1">
      <stop offset="0" stop-color="#ffd54f"/>
      <stop offset="1" stop-color="#ffb300"/>
    </linearGradient>
    <linearGradient id="spine" x1="0" y1="0" x2="1" y2="0">
      <stop offset="0" stop-color="#2c2c3a"/>
      <stop offset="1" stop-color="#3a3a4a"/>
    </linearGradient>
  </defs>

  <!-- Sky blue background -->
  <rect width="64" height="64" rx="12" ry="12" fill="#7ecbff"/>

  <!-- Book body -->
  <g transform="translate(10,9)">
    <!-- Shadow -->
    <ellipse cx="26" cy="46" rx="18" ry="4" fill="rgba(0,0,0,0.18)"/>

    <!-- Cover -->
    <rect x="8" y="4" width="32" height="44" rx="6" ry="6" fill="#2f2f3d" stroke="#181824" stroke-width="1"/>

    <!-- Spine -->
    <rect x="4" y="6" width="8" height="40" rx="4" fill="url(#spine)"/>
    <!-- Spine bands -->
    <rect x="4.5" y="10" width="7" height="2" rx="1" fill="url(#gold)"/>
    <rect x="4.5" y="18" width="7" height="2" rx="1" fill="url(#gold)"/>
    <rect x="4.5" y="26" width="7" height="2" rx="1" fill="url(#gold)"/>
    <rect x="4.5" y="34" width="7" height="2" rx="1" fill="url(#gold)"/>

    <!-- Bookmark -->
    <path d="M38 8 v8 l-4-2 -4 2 v-8 z" fill="#e53935"/>

    <!-- Cross on cover -->
    <g transform="translate(19,16)">
      <rect x="6" y="0" width="6" height="18" rx="1.5" fill="url(#gold)"/>
      <rect x="0" y="6" width="18" height="6" rx="1.5" fill="url(#gold)"/>
    </g>
  </g>

</svg>
